# xmcd CD database file generated by Grip 3.2.0
# 
# Track frame offsets:
#       150
#       12295
#       32593
#       44263
#       64408
#       81588
#       93543
#       111690
#       129265
#       153765
#       171850
#       178438
#       201730
#       215270
#       231113
#       253058
# 
# Disc length: 3609 seconds
# 
# Revision: 3
# Processed by: cddbd v1.5.2PL0 Copyright (c) Steve Scherf et al.
# Submitted via: Grip 3.2.0
# 
DISCID=ec0e1710
DTITLE=Lightnin' Hopkins - Lonesome Dog Blues
DYEAR=1993
DGENRE=Blues
TTITLE0=Lonesome Dog Blues
TTITLE1=Glory Be
TTITLE2=Sometimes She Will
TTITLE3=Shine On Moon
TTITLE4=Santa
TTITLE5=Have You Ever Loved A Woman
TTITLE6=Shake That Thing
TTITLE7=I'm Leaving You Now
TTITLE8=Walk A Long Time
TTITLE9=Bring Me My Shotgun
TTITLE10=Just Pickin'
TTITLE11=Last Night
TTITLE12=Mojo Hand
TTITLE13=Coffee For Mama
TTITLE14=Awful Dreams
TTITLE15=Black Mare Trot
EXTD=
EXTT0=
EXTT1=
EXTT2=
EXTT3=
EXTT4=
EXTT5=
EXTT6=
EXTT7=
EXTT8=
EXTT9=
EXTT10=
EXTT11=
EXTT12=
EXTT13=
EXTT14=
EXTT15=
PLAYORDER=
